<?xml version="1.0" encoding="utf-8"?>
<!-- Generator: Adobe Illustrator 21.1.0, SVG Export Plug-In . SVG Version: 6.00 Build 0)  -->
<svg version="1.1" id="Layer_1" xmlns="http://www.w3.org/2000/svg" xmlns:xlink="http://www.w3.org/1999/xlink" x="0px" y="0px"
	 viewBox="0 0 32 32" style="enable-background:new 0 0 32 32;" xml:space="preserve">
<style type="text/css">
	.st0{fill:#FF5C00;}
</style>
<path class="st0" d="M16,0.5C9.6,0.5,4.4,5.8,4.4,12.3C4.4,20.7,16,31.5,16,31.5s11.6-10.7,11.6-19.2C27.6,5.8,22.4,0.5,16,0.5z
	 M15.9,24.5c-1.7,0-3.1-1.4-3.1-3.1c0-1.7,1.4-3.1,3.1-3.1c1.7,0,3.1,1.4,3.1,3.1c0,0,0,0,0,0C19,23.1,17.6,24.5,15.9,24.5z
	 M18.2,16l-4.4,0l-2-10.9l8.6,0.1L18.2,16z"/>
</svg>
